<svg width="16" height="19" viewBox="0 0 16 19" fill="none" xmlns="http://www.w3.org/2000/svg">
<path fill-rule="evenodd" clip-rule="evenodd" d="M7.72061 14.5263L2.77782 17.2342C2.38318 17.4393 1.89699 17.2941 1.67942 16.9062C1.61648 16.786 1.58252 16.6528 1.58026 16.5172V4.51869C1.58026 2.23036 3.14395 1.31503 5.39414 1.31503H10.6802C12.8617 1.31503 14.4941 2.16934 14.4941 4.36614V16.5172C14.4941 16.7336 14.4081 16.9412 14.255 17.0943C14.102 17.2474 13.8944 17.3333 13.6779 17.3333C13.5398 17.3312 13.4041 17.2972 13.2813 17.2342L8.30795 14.5263C8.12469 14.4273 7.90387 14.4273 7.72061 14.5263Z" fill="#101010" stroke="#101010" stroke-width="1.5" stroke-linecap="round" stroke-linejoin="round"/>
<path d="M4.97461 6.76889H11.0539" stroke="#200E32" stroke-width="1.5" stroke-linecap="round" stroke-linejoin="round"/>
</svg>
