<svg width="48" height="48" viewBox="0 0 48 48" fill="none" xmlns="http://www.w3.org/2000/svg">
<path d="M0 6C0 2.68629 2.68629 0 6 0H42C45.3137 0 48 2.68629 48 6V32C48 35.3137 45.3137 38 42 38H37.0952L24 48L10.9048 38H6C2.6863 38 0 35.3137 0 32V6Z" fill="#292929"/>
<g clip-path="url(#clip0)">
<path d="M28.9915 25.2714H24.4946C24.2359 25.2714 24.0261 25.4812 24.0261 25.7398C24.0261 25.9985 24.2359 26.2083 24.4946 26.2083H28.9915C29.2502 26.2083 29.4599 25.9985 29.4599 25.7398C29.4599 25.4812 29.2502 25.2714 28.9915 25.2714Z" fill="white"/>
<path d="M18.0827 23.4902L16.1399 25.4063C15.8426 25.6996 16.0505 26.2082 16.4688 26.2082H19.498C19.6222 26.2082 19.7413 26.1589 19.8292 26.0711L20.2464 25.6539L18.0827 23.4902Z" fill="white"/>
<path d="M19.3348 19.7457C18.8119 20.2964 18.6018 21.0885 18.7865 21.8273C18.8664 22.1467 18.8283 22.4817 18.6899 22.7725L20.9664 25.049C21.2572 24.9107 21.5923 24.8726 21.9117 24.9524C22.6512 25.1373 23.4422 24.9266 23.9928 24.4038L19.3348 19.7457Z" fill="white"/>
<path d="M31.5366 13.8161L30.1871 12.3542C29.5398 11.6529 28.4531 11.6014 27.7421 12.2334L20.0155 19.1015L24.6419 23.7279L31.5423 16.1806C32.1544 15.5111 32.1528 14.4837 31.5366 13.8161Z" fill="white"/>
</g>
<defs>
<clipPath id="clip0">
<rect width="16" height="16" fill="white" transform="translate(16 11)"/>
</clipPath>
</defs>
</svg>
