<svg width="18" height="18" viewBox="0 0 18 18" fill="none" xmlns="http://www.w3.org/2000/svg">
<g opacity="0.8" clip-path="url(#clip0)">
<path d="M9 3.63516C5.56091 3.63516 2.44216 5.51672 0.140841 8.57287C-0.0469469 8.82326 -0.0469469 9.17306 0.140841 9.42344C2.44216 12.4833 5.56091 14.3648 9 14.3648C12.4391 14.3648 15.5578 12.4833 17.8592 9.42712C18.0469 9.17674 18.0469 8.82694 17.8592 8.57656C15.5578 5.51672 12.4391 3.63516 9 3.63516ZM9.2467 12.7778C6.96379 12.9214 5.07855 11.0399 5.22215 8.7533C5.33998 6.86806 6.86806 5.33998 8.7533 5.22215C11.0362 5.07855 12.9214 6.96011 12.7778 9.2467C12.6563 11.1283 11.1283 12.6563 9.2467 12.7778ZM9.13256 11.0325C7.90273 11.1098 6.88647 10.0973 6.96747 8.86744C7.03007 7.85118 7.85486 7.03007 8.87113 6.96379C10.101 6.88647 11.1172 7.89905 11.0362 9.12887C10.9699 10.1488 10.1451 10.9699 9.13256 11.0325Z" fill="#101010"/>
</g>
<defs>
<clipPath id="clip0">
<rect width="18" height="18" fill="white"/>
</clipPath>
</defs>
</svg>
