<svg width="20" height="20" viewBox="0 0 20 20" fill="none" xmlns="http://www.w3.org/2000/svg">
<g clip-path="url(#clip0)">
<path d="M19.2451 8.26132L11.0873 8.26093C10.7271 8.26093 10.4351 8.55288 10.4351 8.91311V11.5192C10.4351 11.8793 10.7271 12.1714 11.0872 12.1714H15.6812C15.1782 13.4769 14.2393 14.5702 13.0414 15.2649L15.0003 18.6558C18.1425 16.8385 20.0003 13.6499 20.0003 10.0805C20.0003 9.57221 19.9628 9.20889 19.8879 8.79979C19.8309 8.48897 19.5611 8.26132 19.2451 8.26132Z" fill="#167EE6"/>
<path d="M9.99982 16.0869C7.75161 16.0869 5.78896 14.8586 4.73485 13.0409L1.34399 14.9953C3.06958 17.986 6.30216 20 9.99982 20C11.8138 20 13.5254 19.5116 14.9998 18.6605V18.6558L13.041 15.2648C12.1449 15.7845 11.1081 16.0869 9.99982 16.0869Z" fill="#12B347"/>
<path d="M15 18.6605V18.6558L13.0411 15.2648C12.1451 15.7844 11.1083 16.0869 10 16.0869V20C11.8139 20 13.5256 19.5116 15 18.6605Z" fill="#0F993E"/>
<path d="M3.91305 9.99999C3.91305 8.89183 4.21547 7.85507 4.73504 6.95909L1.34418 5.00464C0.488359 6.47444 0 8.1814 0 9.99999C0 11.8186 0.488359 13.5255 1.34418 14.9953L4.73504 13.0409C4.21547 12.1449 3.91305 11.1082 3.91305 9.99999Z" fill="#FFD500"/>
<path d="M9.99981 3.91305C11.4659 3.91305 12.8125 4.43398 13.8643 5.30051C14.1238 5.51426 14.501 5.49883 14.7387 5.26113L16.5852 3.41465C16.8549 3.14496 16.8356 2.70352 16.5476 2.45359C14.7852 0.924727 12.4923 0 9.99981 0C6.30216 0 3.06958 2.01395 1.34399 5.00465L4.73485 6.9591C5.78896 5.14141 7.75161 3.91305 9.99981 3.91305Z" fill="#FF4B26"/>
<path d="M13.8645 5.30051C14.124 5.51426 14.5012 5.49883 14.7389 5.26113L16.5853 3.41465C16.855 3.14496 16.8358 2.70352 16.5477 2.45359C14.7854 0.924688 12.4925 0 10 0V3.91305C11.466 3.91305 12.8127 4.43398 13.8645 5.30051Z" fill="#D93F21"/>
</g>
<defs>
<clipPath id="clip0">
<rect width="20" height="20" fill="white"/>
</clipPath>
</defs>
</svg>
