<svg width="16" height="16" viewBox="0 0 16 16" fill="none" xmlns="http://www.w3.org/2000/svg">
<g opacity="0.7" clip-path="url(#clip0)">
<path d="M12.9912 14.2714H8.49431C8.23561 14.2714 8.02588 14.4811 8.02588 14.7398C8.02588 14.9985 8.23561 15.2083 8.49431 15.2083H12.9912C13.2499 15.2083 13.4596 14.9985 13.4596 14.7398C13.4596 14.4811 13.2499 14.2714 12.9912 14.2714Z" fill="white"/>
<path d="M2.08268 12.4902L0.1399 14.4063C-0.157394 14.6996 0.0504933 15.2082 0.468829 15.2082H3.49798C3.62221 15.2082 3.74135 15.1589 3.82919 15.0711L4.24637 14.6539L2.08268 12.4902Z" fill="white"/>
<path d="M3.33481 8.74573C2.81189 9.29644 2.60181 10.0885 2.7865 10.8273C2.86635 11.1467 2.82825 11.4817 2.68994 11.7725L4.96643 14.049C5.25723 13.9107 5.59228 13.8726 5.91165 13.9524C6.6512 14.1373 7.44222 13.9266 7.99281 13.4038L3.33481 8.74573Z" fill="white"/>
<path d="M15.5367 2.81611L14.1872 1.35418C13.5399 0.652854 12.4532 0.601389 11.7422 1.23339L4.01562 8.10145L8.64202 12.7278L15.5424 5.1806C16.1545 4.51106 16.153 3.48371 15.5367 2.81611Z" fill="white"/>
</g>
<defs>
<clipPath id="clip0">
<rect width="16" height="16" fill="white"/>
</clipPath>
</defs>
</svg>
