<svg width="24" height="24" viewBox="0 0 24 24" fill="none" xmlns="http://www.w3.org/2000/svg">
<path fill-rule="evenodd" clip-rule="evenodd" d="M17.0206 1.20868H6.93013C3.41263 1.20868 1.2088 3.69835 1.2088 7.22168V16.7288C1.2088 20.2522 3.4033 22.7418 6.93013 22.7418H17.0195C20.5475 22.7418 22.742 20.2522 22.742 16.7288V7.22168C22.742 3.69835 20.5475 1.20868 17.0206 1.20868Z" stroke="#101010" stroke-width="1.5" stroke-linecap="round" stroke-linejoin="round"/>
<path fill-rule="evenodd" clip-rule="evenodd" d="M10.4872 8.24974C10.4872 9.43857 9.52233 10.4034 8.3335 10.4034C7.14583 10.4034 6.181 9.43857 6.181 8.24974C6.181 7.0609 7.14583 6.09607 8.3335 6.09607C9.52233 6.09607 10.4872 7.0609 10.4872 8.24974Z" stroke="#101010" stroke-width="1.5" stroke-linecap="round" stroke-linejoin="round"/>
<path d="M22.7412 15.4423C21.5815 14.4331 20.5724 13.2186 19.2424 12.4171C17.91 11.6156 16.4785 12.1103 15.5545 13.3061C14.662 14.4623 14.1044 16.0174 12.7569 16.7466C11.0967 17.6461 10.1214 16.1959 8.73653 15.6149C7.19069 14.9674 6.01703 16.1318 5.11403 17.2506C4.20986 18.3706 3.29403 19.4789 2.37469 20.5873" stroke="#101010" stroke-width="1.5" stroke-linecap="round" stroke-linejoin="round"/>
</svg>
