<svg width="18" height="18" viewBox="0 0 18 18" fill="none" xmlns="http://www.w3.org/2000/svg">
<g opacity="0.8">
<path fill-rule="evenodd" clip-rule="evenodd" d="M15.9075 5.92486V12.0374C15.9075 14.3024 14.49 15.8999 12.225 15.8999H5.7375C3.4725 15.8999 2.0625 14.3024 2.0625 12.0374V5.92486C2.0625 3.65986 3.48 2.06311 5.7375 2.06311H12.225C14.49 2.06311 15.9075 3.65986 15.9075 5.92486Z" stroke="#101010" stroke-width="1.5" stroke-linecap="round" stroke-linejoin="round"/>
<path d="M3.96097 12.3241L5.10772 11.1143C5.52097 10.6778 6.21472 10.6756 6.63172 11.1083L7.29547 11.7856C7.74322 12.2423 8.48797 12.2093 8.89372 11.7151L10.5655 9.68185C11.0455 9.0976 11.926 9.0616 12.4517 9.60385L14.0087 11.2103" stroke="#101010" stroke-width="1.5" stroke-linecap="round" stroke-linejoin="round"/>
<path fill-rule="evenodd" clip-rule="evenodd" d="M7.73514 6.85066C7.73514 7.57666 7.14564 8.16616 6.41964 8.16616C5.69364 8.16616 5.10489 7.57666 5.10489 6.85066C5.10489 6.12466 5.69364 5.53516 6.41964 5.53516C7.14564 5.53516 7.73514 6.12466 7.73514 6.85066Z" stroke="#101010" stroke-width="1.5" stroke-linecap="round" stroke-linejoin="round"/>
</g>
</svg>
