<svg width="20" height="20" viewBox="0 0 20 20" fill="none" xmlns="http://www.w3.org/2000/svg">
<path d="M10 0C4.47305 0 0 4.47266 0 10C0 15.527 4.47266 20 10 20C15.527 20 20 15.5273 20 10C20 4.47305 15.5273 0 10 0ZM7.62055 14.2184C7.62055 14.2184 4.16656 10.763 3.91828 10.5152C3.36598 9.96285 3.36598 9.0641 3.91828 8.51227C4.47199 7.95855 5.36746 7.95855 5.92117 8.51227L8.15727 10.7484C8.43531 11.0264 8.88656 11.0245 9.16227 10.745L14.072 5.76449C14.6239 5.20465 15.5255 5.20086 16.082 5.75742C16.63 6.30547 16.6334 7.20047 16.0891 7.75277C10.7573 13.1624 9.74477 14.2179 9.74477 14.2179C9.15941 14.8032 8.20637 14.8037 7.62055 14.2184Z" fill="white"/>
</svg>
