<svg width="23" height="25" viewBox="0 0 23 25" fill="none" xmlns="http://www.w3.org/2000/svg">
<path d="M22.4377 0C11.8492 0 3.13979 8.14585 2.21689 18.4979C3.97626 16.0167 6.13148 13.6292 8.82211 10.8844C9.02211 10.6781 9.35336 10.674 9.55858 10.8771C9.76381 11.0781 9.76693 11.4083 9.56586 11.6136C9.16063 12.0261 8.74921 12.4542 8.33564 12.8875C8.09916 13.1344 7.86791 13.3803 7.64086 13.6219C7.59921 13.6667 7.55751 13.7115 7.51586 13.7573C4.19086 17.3177 1.81376 20.4167 0.0876878 24.2656C-0.0300367 24.5281 0.0876878 24.8365 0.349162 24.9541C0.418938 24.9854 0.490813 25 0.562688 25C0.761662 25 0.952287 24.8854 1.03871 24.6927C1.65331 23.3229 2.36684 22.0521 3.16894 20.8156C10.4439 20.6292 17.0658 16.5823 20.5367 10.1427C20.6231 9.98125 20.6189 9.78648 20.5252 9.62813C20.4304 9.47188 20.2606 9.375 20.0773 9.375H18.5488C18.2243 9.375 18.1308 8.93147 18.4277 8.80052L21.6075 7.3979C21.7169 7.3354 21.8013 7.23438 21.8419 7.11563C22.5835 4.95937 22.9585 2.74062 22.9585 0.52085C22.9585 0.23335 22.7252 0 22.4377 0Z" fill="#101010"/>
</svg>
