<svg width="24" height="25" viewBox="0 0 24 25" fill="none" xmlns="http://www.w3.org/2000/svg">
<path d="M22.9375 0C12.3489 0 3.63954 8.14585 2.71664 18.4979C4.47602 16.0167 6.63124 13.6292 9.32187 10.8844C9.52186 10.6781 9.85311 10.674 10.0583 10.8771C10.2636 11.0781 10.2667 11.4083 10.0656 11.6136C9.66039 12.0261 9.24897 12.4542 8.83539 12.8875C8.59892 13.1344 8.36767 13.3803 8.14062 13.6219C8.09897 13.6667 8.05727 13.7115 8.01562 13.7573C4.69062 17.3177 2.31352 20.4167 0.587444 24.2656C0.469719 24.5281 0.587444 24.8365 0.848918 24.9541C0.918694 24.9854 0.990569 25 1.06244 25C1.26142 25 1.45204 24.8854 1.53847 24.6927C2.15307 23.3229 2.86659 22.0521 3.66869 20.8156C10.9437 20.6292 17.5656 16.5823 21.0364 10.1427C21.1229 9.98125 21.1187 9.78648 21.0249 9.62813C20.9302 9.47188 20.7603 9.375 20.577 9.375H19.0485C18.724 9.375 18.6305 8.93147 18.9274 8.80052L22.1073 7.3979C22.2166 7.3354 22.301 7.23438 22.3416 7.11563C23.0833 4.95937 23.4583 2.74062 23.4583 0.52085C23.4583 0.23335 23.225 0 22.9375 0Z" fill="white"/>
</svg>
