<svg width="44" height="50" viewBox="0 0 44 50" fill="none" xmlns="http://www.w3.org/2000/svg">
<path fill-rule="evenodd" clip-rule="evenodd" d="M23.3741 29.325H27.6563C28.6711 29.325 29.5127 28.5 29.5127 27.475C29.5127 26.425 28.6711 25.6 27.6563 25.6H23.3741V21.275C23.3741 20.25 22.5573 19.425 21.5424 19.425C20.5275 19.425 19.686 20.25 19.686 21.275V25.6H15.4285C14.4137 25.6 13.5721 26.425 13.5721 27.475C13.5721 28.5 14.4137 29.325 15.4285 29.325H19.686V33.65C19.686 34.675 20.5275 35.5 21.5424 35.5C22.5573 35.5 23.3741 34.675 23.3741 33.65V29.325ZM40.3452 17.564C40.927 17.5573 41.5605 17.55 42.1362 17.55C42.755 17.55 43.25 18.05 43.25 18.675V38.775C43.25 44.975 38.2748 50 32.1114 50H12.4332C5.99753 50 0.75 44.725 0.75 38.225V11.275C0.75 5.075 5.75 0 11.9134 0H25.1312C25.7748 0 26.2698 0.525 26.2698 1.15V9.2C26.2698 13.775 30.0074 17.525 34.5371 17.55C35.5952 17.55 36.528 17.5579 37.3442 17.5648C37.9793 17.5702 38.5439 17.575 39.0421 17.575C39.3944 17.575 39.8512 17.5697 40.3452 17.564ZM41.0247 13.9155C38.99 13.923 36.5915 13.9155 34.8663 13.898C32.1287 13.898 29.8737 11.6205 29.8737 8.85548V2.26548C29.8737 1.18798 31.1683 0.652978 31.9084 1.43048C33.2477 2.83698 35.088 4.77022 36.9201 6.69475C38.7483 8.61518 40.5682 10.5269 41.8737 11.898C42.5965 12.6555 42.0668 13.913 41.0247 13.9155Z" fill="#101010"/>
</svg>
