<svg width="20" height="20" viewBox="0 0 20 20" fill="none" xmlns="http://www.w3.org/2000/svg">
<path fill-rule="evenodd" clip-rule="evenodd" d="M2.91734 11.4893V11.3068C2.94412 10.7669 3.11716 10.2437 3.41862 9.79134C3.92041 9.24788 4.26391 8.58192 4.41308 7.86331C4.41308 7.30792 4.41308 6.74458 4.4616 6.18919C4.71223 3.51535 7.35606 1.66667 9.96754 1.66667H10.0322C12.6437 1.66667 15.2875 3.51535 15.5462 6.18919C15.5948 6.74458 15.5462 7.30792 15.5867 7.86331C15.7379 8.58359 16.081 9.25162 16.5811 9.79927C16.8849 10.2477 17.0582 10.7689 17.0824 11.3068V11.4813C17.1005 12.2067 16.8506 12.914 16.379 13.4728C15.7558 14.1262 14.9101 14.5327 14.002 14.6154C11.3392 14.901 8.65252 14.901 5.98968 14.6154C5.08261 14.5292 4.23812 14.1232 3.61266 13.4728C3.14832 12.9136 2.90186 12.2105 2.91734 11.4893Z" stroke="#101010" stroke-width="1.5" stroke-linecap="round" stroke-linejoin="round"/>
<path d="M7.96243 17.3765C8.37849 17.8987 8.98948 18.2367 9.66018 18.3156C10.3309 18.3945 11.006 18.2079 11.536 17.797C11.6991 17.6755 11.8458 17.5342 11.9726 17.3765" stroke="#101010" stroke-width="1.5" stroke-linecap="round" stroke-linejoin="round"/>
</svg>
